<?xml version="1.0" encoding="UTF-8"?>
<svg version="1.1" xmlns="http://www.w3.org/2000/svg" width="84" height="86">
<path d="M0 0 C27.72 0 55.44 0 84 0 C84 28.38 84 56.76 84 86 C56.28 86 28.56 86 0 86 C0 57.62 0 29.24 0 0 Z " fill="#F5F0FF" transform="translate(0,0)"/>
<path d="M0 0 C6.52656912 3.02866933 12.01836754 6.9320509 16 13 C17.97850863 18.9355259 18.23043549 25.84445511 15.94140625 31.71484375 C12.65882215 37.06127476 8.94230796 39.97228387 3 42 C-0.19457082 42.4307324 -3.2845827 42.38615774 -6.5 42.25 C-7.32242188 42.23195312 -8.14484375 42.21390625 -8.9921875 42.1953125 C-10.99530804 42.1487283 -12.99781821 42.07700699 -15 42 C-10.24105179 36.17507105 -5.27857527 31.18571685 1 27 C1.66707548 23.58500409 1.66707548 23.58500409 1 20 C-1.09797638 17.77487354 -3.09987121 16.42827181 -5.85546875 15.1171875 C-9.50491272 13.32632633 -10.83697255 12.42697666 -12.3125 8.5625 C-12 5 -12 5 -9.4375 2.0625 C-6.11294469 -0.21980342 -4.05566931 -0.85793005 0 0 Z " fill="#9333EA" transform="translate(60,31)"/>
<path d="M0 0 C1.24716797 0.02030273 1.24716797 0.02030273 2.51953125 0.04101562 C4.55497066 0.07610941 6.59007291 0.12990772 8.625 0.1875 C5.62022526 6.88932601 0.30828764 11.32323387 -6.375 14.1875 C-7.74136155 15.34616921 -7.74136155 15.34616921 -7.75 18.5 C-7.74809038 22.23654212 -7.74809038 22.23654212 -5.3125 24.375 C-2.59700071 26.11357391 -2.59700071 26.11357391 -0.51953125 27.10546875 C2.77438779 28.76940723 4.40374022 29.66753951 5.875 33.125 C5.625 36.1875 5.625 36.1875 3.75 39.0625 C0.18273073 41.4882431 -1.73558593 41.99151387 -5.96875 41.73046875 C-12.25508645 40.31196101 -16.90990959 36.37962149 -20.375 31.0625 C-23.20153304 26.17495328 -23.75724138 21.82556042 -23.375 16.1875 C-21.31987378 10.02212135 -18.3370613 5.09200235 -12.79296875 1.52734375 C-8.38327592 -0.20125584 -4.68117448 -0.14558677 0 0 Z " fill="#9333EA" transform="translate(32.375,9.8125)"/>
<path d="M0 0 C2.91632106 1.25056649 4.39988058 2.4037426 6.27734375 4.9765625 C6.96484375 7.7265625 6.96484375 7.7265625 6.27734375 10.9765625 C1.92881248 17.72894025 -4.61482358 22.42264616 -11.72265625 25.9765625 C-17.85075948 26.72136274 -23.1645153 27.01221326 -28.28515625 23.2265625 C-31.7817548 20.24881406 -34.52710529 17.57356201 -35.09765625 12.9140625 C-34.72265625 9.9765625 -34.72265625 9.9765625 -33.53515625 8.0390625 C-31.72265625 6.9765625 -31.72265625 6.9765625 -29.34765625 7.0390625 C-26.72265625 7.9765625 -26.72265625 7.9765625 -24.34765625 10.0390625 C-20.81746348 12.64468098 -19.04551092 12.55778666 -14.72265625 11.9765625 C-12.32266635 10.26617891 -10.50165026 8.15038093 -8.59765625 5.9140625 C-3.49138883 -0.030055 -3.49138883 -0.030055 0 0 Z " fill="#9333EA" transform="translate(44.72265625,47.0234375)"/>
<path d="M0 0 C3.84313487 2.37844361 6.20184683 4.73102818 8.1875 8.875 C8.5625 11.625 8.5625 11.625 8.1875 13.875 C6.1875 15.875 6.1875 15.875 2.8125 16.25 C-1.49863681 15.80402033 -1.88361883 14.80388117 -4.8125 11.875 C-8.22052645 11.30769082 -10.66159701 11.08573756 -13.60107422 13.1015625 C-15.41377383 14.78751058 -17.08857863 16.53999729 -18.75 18.375 C-19.33845703 18.99503906 -19.92691406 19.61507813 -20.53320312 20.25390625 C-21.97606992 21.77888741 -23.39659328 23.32495475 -24.8125 24.875 C-28.16028997 23.26101283 -30.58019663 21.93408239 -32.8125 18.875 C-33.0183212 15.23882555 -32.65621149 12.95614942 -30.3828125 10.04296875 C-28.59658047 8.22101208 -26.74633845 6.53881584 -24.8125 4.875 C-24.27753906 4.38644531 -23.74257813 3.89789062 -23.19140625 3.39453125 C-16.19336402 -2.80373473 -8.44479585 -4.32674054 0 0 Z " fill="#9333EA" transform="translate(67.8125,12.125)"/>
<path d="M0 0 C0 0.99 0 1.98 0 3 C-0.99 3.33 -1.98 3.66 -3 4 C-3.33 4.66 -3.66 5.32 -4 6 C-4.66 6 -5.32 6 -6 6 C-6 6.66 -6 7.32 -6 8 C-7.175625 8.12375 -7.175625 8.12375 -8.375 8.25 C-11.04884835 8.74167315 -11.04884835 8.74167315 -12.3125 10.625 C-13.55252635 14.9087274 -13.40219335 18.79341995 -12 23 C-15 25 -15 25 -17 25 C-17.66 25.66 -18.32 26.32 -19 27 C-19.66 27.66 -20.32 28.32 -21 29 C-21.66 29 -22.32 29 -23 29 C-25.81463747 22.81684058 -26.30746453 16.10822611 -24.23046875 9.58203125 C-21.56022807 4.55292071 -18.02106492 2.42865083 -12.71484375 0.609375 C-8.44678053 -0.34863631 -4.34412616 -0.33274158 0 0 Z " fill="#9333EA" transform="translate(36,12)"/>
<path d="M0 0 C0 0.33 0 0.66 0 1 C-0.67804687 1.02578125 -1.35609375 1.0515625 -2.0546875 1.078125 C-8.8730326 1.49364742 -15.07375285 2.41566499 -21 6 C-25.44835234 11.08383125 -25.40144257 15.52048528 -25.23828125 22.1328125 C-25.01447382 24.8258396 -24.59334552 27.36612475 -24 30 C-27.99337061 25.13850534 -28.42512636 21.27061388 -28 15 C-26.25889628 9.77668885 -23.99171492 5.81430536 -20 2 C-13.46096891 -0.52383656 -6.93745543 -0.20812366 0 0 Z " fill="#9333EA" transform="translate(37,11)"/>
<path d="M0 0 C1.875 0.1875 1.875 0.1875 4 1 C5.375 3.3125 5.375 3.3125 6 6 C5.125 8.3125 5.125 8.3125 4 10 C4.66 10 5.32 10 6 10 C6 10.66 6 11.32 6 12 C4.68 12.33 3.36 12.66 2 13 C0.35 10.69 -1.3 8.38 -3 6 C-2.01 4.02 -1.02 2.04 0 0 Z " fill="#9333EA" transform="translate(15,56)"/>
<path d="M0 0 C3.00296082 1.0986442 4.48085688 2.54746531 6.5625 4.9375 C5.5725 4.9375 4.5825 4.9375 3.5625 4.9375 C3.5625 4.2775 3.5625 3.6175 3.5625 2.9375 C2.2425 2.9375 0.9225 2.9375 -0.4375 2.9375 C-1.83485818 5.09174056 -1.83485818 5.09174056 -2.4375 7.9375 C-0.30451464 12.33041563 -0.30451464 12.33041563 3.75 14.6875 C4.348125 14.77 4.94625 14.8525 5.5625 14.9375 C5.8925 15.5975 6.2225 16.2575 6.5625 16.9375 C7.5525 17.5975 8.5425 18.2575 9.5625 18.9375 C3.88295039 18.26931769 0.16943764 15.54443764 -3.8125 11.5625 C-5.78945288 8.36896074 -5.99951774 6.63075941 -5.4375 2.9375 C-3.81433811 0.28918324 -3.11583983 -0.07989333 0 0 Z " fill="#A855F7" transform="translate(15.4375,54.0625)"/>
<path d="M0 0 C1.26070312 0.02030273 1.26070312 0.02030273 2.546875 0.04101562 C4.61485938 0.07626536 6.68251271 0.1300698 8.75 0.1875 C7.36761648 3.28759769 5.76421141 5.47013873 3.375 7.875 C2.78976563 8.47699219 2.20453125 9.07898438 1.6015625 9.69921875 C-0.37608914 11.28885013 -1.7714179 11.7780426 -4.25 12.1875 C-4.25 11.5275 -4.25 10.8675 -4.25 10.1875 C-3.59 10.1875 -2.93 10.1875 -2.25 10.1875 C-2.25 9.5275 -2.25 8.8675 -2.25 8.1875 C-1.59 8.1875 -0.93 8.1875 -0.25 8.1875 C0.08 7.1975 0.41 6.2075 0.75 5.1875 C1.74 5.1875 2.73 5.1875 3.75 5.1875 C3.75 4.1975 3.75 3.2075 3.75 2.1875 C-4.79824466 2.02876912 -4.79824466 2.02876912 -13.25 3.1875 C-9.41669799 -0.82482985 -5.15568073 -0.15708715 0 0 Z " fill="#9333EA" transform="translate(32.25,9.8125)"/>
<path d="M0 0 C0.99 0 1.98 0 3 0 C1.125 3.875 1.125 3.875 0 5 C-0.50125283 8.33142278 -0.50125283 8.33142278 0 12 C2.35418376 14.93973281 2.35418376 14.93973281 5 17 C2.06832781 16.68306247 0.41017339 16.36774166 -1.8125 14.375 C-3.47603223 11.04793553 -3.38708602 8.67731723 -3 5 C-1.6875 2.0625 -1.6875 2.0625 0 0 Z " fill="#9333EA" transform="translate(25,20)"/>
<path d="M0 0 C0.99 0 1.98 0 3 0 C1.125 3.875 1.125 3.875 0 5 C-0.50125283 8.33142278 -0.50125283 8.33142278 0 12 C2.35418376 14.93973281 2.35418376 14.93973281 5 17 C2.06832781 16.68306247 0.41017339 16.36774166 -1.8125 14.375 C-3.47603223 11.04793553 -3.38708602 8.67731723 -3 5 C-1.6875 2.0625 -1.6875 2.0625 0 0 Z " fill="#9333EA" transform="translate(25,20)"/>
<path d="M0 0 C7.74873437 7.32988386 7.74873437 7.32988386 8.29296875 13.11328125 C8.25816406 14.16902344 8.22335938 15.22476563 8.1875 16.3125 C8.16042969 17.38113281 8.13335937 18.44976562 8.10546875 19.55078125 C8.07066406 20.35902344 8.03585938 21.16726562 8 22 C7.67 22 7.34 22 7 22 C6.67 19.03 6.34 16.06 6 13 C5.34 13 4.68 13 4 13 C3.896875 11.9275 3.79375 10.855 3.6875 9.75 C3.01397764 6.07624166 2.34125011 4.74842404 0 2 C0 1.34 0 0.68 0 0 Z " fill="#9333EA" transform="translate(69,37)"/>
<path d="M0 0 C0.99 0.33 1.98 0.66 3 1 C1.60469479 3.79061042 -0.56184836 5.08430943 -3 7 C-3.7115625 7.8971875 -3.7115625 7.8971875 -4.4375 8.8125 C-6 10 -6 10 -9.1875 9.6875 C-10.115625 9.460625 -11.04375 9.23375 -12 9 C-12 8.67 -12 8.34 -12 8 C-10.700625 7.690625 -10.700625 7.690625 -9.375 7.375 C-5.07882294 5.62470564 -3.10989527 3.40607577 0 0 Z " fill="#9333EA" transform="translate(37,52)"/>
<path d="M0 0 C3 1 3 1 4.9375 4 C6.64438253 7.12081076 6.64438253 7.12081076 9.1875 7.75 C9.785625 7.8325 10.38375 7.915 11 8 C11.33 8.66 11.66 9.32 12 10 C12.99 10.66 13.98 11.32 15 12 C9.24991425 11.32351932 5.4600863 8.61377959 1.625 4.375 C0 2 0 2 0 0 Z " fill="#9333EA" transform="translate(10,61)"/>
<path d="M0 0 C-0.4640625 0.8353125 -0.4640625 0.8353125 -0.9375 1.6875 C-2.05761821 4.12540433 -2.56037364 6.36224186 -3 9 C-2.34 9.33 -1.68 9.66 -1 10 C-1.33 10.66 -1.66 11.32 -2 12 C-5.87533393 8.730187 -5.87533393 8.730187 -6.4375 5.4375 C-5.69126454 1.27990244 -4.19712735 0 0 0 Z " fill="#9333EA" transform="translate(54,33)"/>
<path d="M0 0 C1.41623216 -0.05447047 2.83308191 -0.09300508 4.25 -0.125 C5.03890625 -0.14820313 5.8278125 -0.17140625 6.640625 -0.1953125 C9.20731941 0.0171622 10.7916067 0.71345895 13 2 C12.67 2.66 12.34 3.32 12 4 C11.34 4 10.68 4 10 4 C10 3.34 10 2.68 10 2 C6.37 2 2.74 2 -1 2 C-0.67 1.34 -0.34 0.68 0 0 Z " fill="#9333EA" transform="translate(54,10)"/>
<path d="M0 0 C1.32 0.66 2.64 1.32 4 2 C2.02 4.31 0.04 6.62 -2 9 C-2.66 8.01 -3.32 7.02 -4 6 C-3.01 6 -2.02 6 -1 6 C-1.309375 5.071875 -1.309375 5.071875 -1.625 4.125 C-1.810625 3.073125 -1.810625 3.073125 -2 2 C-1.34 1.34 -0.68 0.68 0 0 Z " fill="#9333EA" transform="translate(46,57)"/>
<path d="M0 0 C1.65 0 3.3 0 5 0 C4.19152271 1.16945792 3.37810888 2.33550461 2.5625 3.5 C2.11003906 4.1496875 1.65757813 4.799375 1.19140625 5.46875 C0.79824219 5.9740625 0.40507813 6.479375 0 7 C-0.33 7 -0.66 7 -1 7 C-0.67 4.69 -0.34 2.38 0 0 Z " fill="#9333EA" transform="translate(38,23)"/>
<path d="M0 0 C0.66 0.33 1.32 0.66 2 1 C1.21625 1.9075 0.4325 2.815 -0.375 3.75 C-2.30052496 6.05190236 -3.82205741 8.21577207 -5 11 C-5.66 11 -6.32 11 -7 11 C-5.5140084 6.40693504 -3.14985318 3.56430755 0 0 Z " fill="#9333EA" transform="translate(17,13)"/>
<path d="M0 0 C0.33 0 0.66 0 1 0 C1.2475 1.0725 1.495 2.145 1.75 3.25 C2.99883146 6.99649437 4.02488658 8.52073882 7 11 C2.25 10.25 2.25 10.25 0 8 C-0.26991906 5.31160615 -0.08737357 2.70858064 0 0 Z " fill="#9333EA" transform="translate(23,26)"/>
<path d="M0 0 C2.96404505 2.80804268 5.44499019 5.18315774 7 9 C1.21538462 4.56923077 1.21538462 4.56923077 0.125 1.6875 C0.08375 1.130625 0.0425 0.57375 0 0 Z " fill="#9333EA" transform="translate(69,37)"/>
</svg>